<?xml version="1.0" encoding="UTF-8"?>
<svg xmlns="http://www.w3.org/2000/svg" xmlns:xlink="http://www.w3.org/1999/xlink" viewBox="0 0 48 48" width="48px" height="48px">
<g id="surface44896260">
<path style=" stroke:none;fill-rule:nonzero;fill:rgb(100%,100%,100%);fill-opacity:1;" d="M 28 22.039062 C 26.960938 22.039062 26.121094 23.101562 26.121094 24.398438 C 26.121094 25.699219 26.960938 26.761719 28 26.761719 C 29.039062 26.761719 29.878906 25.699219 29.878906 24.398438 C 29.878906 23.101562 29.039062 22.039062 28 22.039062 Z M 20 22.039062 C 18.960938 22.039062 18.121094 23.101562 18.121094 24.398438 C 18.121094 25.699219 18.960938 26.761719 20 26.761719 C 21.039062 26.761719 21.878906 25.699219 21.878906 24.398438 C 21.878906 23.101562 21.039062 22.039062 20 22.039062 Z M 28 22.039062 C 26.960938 22.039062 26.121094 23.101562 26.121094 24.398438 C 26.121094 25.699219 26.960938 26.761719 28 26.761719 C 29.039062 26.761719 29.878906 25.699219 29.878906 24.398438 C 29.878906 23.101562 29.039062 22.039062 28 22.039062 Z M 20 22.039062 C 18.960938 22.039062 18.121094 23.101562 18.121094 24.398438 C 18.121094 25.699219 18.960938 26.761719 20 26.761719 C 21.039062 26.761719 21.878906 25.699219 21.878906 24.398438 C 21.878906 23.101562 21.039062 22.039062 20 22.039062 Z M 36 6 L 12 6 C 8.679688 6 6 8.679688 6 12 L 6 36 C 6 39.320312 8.679688 42 12 42 L 34 42 L 33.238281 39.179688 L 39.261719 45.238281 C 40.28125 46.261719 42 45.539062 42 44.121094 L 42 12 C 42 8.679688 39.320312 6 36 6 Z M 35.140625 29.480469 C 32.398438 31.980469 28.820312 32 28.820312 32 L 27.960938 30.839844 C 28.839844 30.539062 29.601562 30.140625 30.378906 29.539062 L 30.199219 29.058594 C 28.761719 29.71875 26.898438 30.121094 24 30.121094 C 21.101562 30.121094 19.238281 29.71875 17.800781 29.058594 L 17.621094 29.539062 C 18.398438 30.140625 19.160156 30.539062 20.039062 30.839844 L 19.179688 32 C 19.179688 32 15.601562 31.980469 12.859375 29.480469 C 12.421875 29.078125 12.238281 28.460938 12.28125 27.878906 C 12.78125 22.101562 14.558594 18.601562 15.199219 17.519531 C 15.339844 17.261719 15.539062 17.058594 15.78125 16.878906 C 16.539062 16.378906 18.441406 15.261719 20.78125 15.019531 L 21.378906 16.238281 C 22.238281 16.078125 23.179688 15.960938 24 15.960938 C 24.800781 15.960938 25.71875 16.078125 26.621094 16.238281 L 27.21875 15.019531 C 29.460938 15.199219 31.441406 16.359375 32.21875 16.878906 C 32.460938 17.058594 32.660156 17.261719 32.800781 17.519531 C 33.441406 18.621094 35.21875 22.101562 35.71875 27.878906 C 35.761719 28.460938 35.578125 29.078125 35.140625 29.480469 Z M 28 22.039062 C 26.960938 22.039062 26.121094 23.101562 26.121094 24.398438 C 26.121094 25.699219 26.960938 26.761719 28 26.761719 C 29.039062 26.761719 29.878906 25.699219 29.878906 24.398438 C 29.878906 23.101562 29.039062 22.039062 28 22.039062 Z M 20 22.039062 C 18.960938 22.039062 18.121094 23.101562 18.121094 24.398438 C 18.121094 25.699219 18.960938 26.761719 20 26.761719 C 21.039062 26.761719 21.878906 25.699219 21.878906 24.398438 C 21.878906 23.101562 21.039062 22.039062 20 22.039062 Z M 20 22.039062 "/>
</g>
</svg>
