<?xml version="1.0" encoding="UTF-8"?>
<svg xmlns="http://www.w3.org/2000/svg" xmlns:xlink="http://www.w3.org/1999/xlink" viewBox="0 0 60 60" width="60px" height="60px">
<g id="surface44917002">
<path style=" stroke:none;fill-rule:nonzero;fill:rgb(100%,100%,100%);fill-opacity:1;" d="M 23 6 C 20.238281 6 18 8.238281 18 11 C 18 13.761719 20.238281 16 23 16 L 28 16 L 28 11 C 28 8.238281 25.761719 6 23 6 Z M 35 6 C 32.238281 6 30 8.238281 30 11 L 30 23 C 30 25.761719 32.238281 28 35 28 C 37.761719 28 40 25.761719 40 23 L 40 11 C 40 8.238281 37.761719 6 35 6 Z M 11 18 C 8.238281 18 6 20.238281 6 23 C 6 25.761719 8.238281 28 11 28 L 23 28 C 25.761719 28 28 25.761719 28 23 C 28 20.238281 25.761719 18 23 18 Z M 47 18 C 44.238281 18 42 20.238281 42 23 L 42 28 L 47 28 C 49.761719 28 52 25.761719 52 23 C 52 20.238281 49.761719 18 47 18 Z M 11 30 C 8.238281 30 6 32.238281 6 35 C 6 37.761719 8.238281 40 11 40 C 13.761719 40 16 37.761719 16 35 L 16 30 Z M 23 30 C 20.238281 30 18 32.238281 18 35 L 18 47 C 18 49.761719 20.238281 52 23 52 C 25.761719 52 28 49.761719 28 47 L 28 35 C 28 32.238281 25.761719 30 23 30 Z M 35 30 C 32.238281 30 30 32.238281 30 35 C 30 37.761719 32.238281 40 35 40 L 47 40 C 49.761719 40 52 37.761719 52 35 C 52 32.238281 49.761719 30 47 30 Z M 30 42 L 30 47 C 30 49.761719 32.238281 52 35 52 C 37.761719 52 40 49.761719 40 47 C 40 44.238281 37.761719 42 35 42 Z M 30 42 "/>
</g>
</svg>
