<?xml version="1.0" encoding="UTF-8"?>
<svg xmlns="http://www.w3.org/2000/svg" xmlns:xlink="http://www.w3.org/1999/xlink" viewBox="0 0 60 60" width="60px" height="60px">
<g id="surface44848647">
<path style=" stroke:none;fill-rule:nonzero;fill:rgb(100%,100%,100%);fill-opacity:1;" d="M 54.648438 9.609375 L 45.148438 6.359375 C 44.519531 6.140625 43.8125 6.257812 43.285156 6.660156 L 21.867188 23.082031 L 11.035156 16.539062 C 10.476562 16.203125 9.792969 16.15625 9.199219 16.417969 L 5.199219 18.167969 C 4.46875 18.484375 4 19.207031 4 20 L 4 40 C 4 40.792969 4.46875 41.515625 5.199219 41.832031 L 9.199219 43.582031 C 9.792969 43.84375 10.476562 43.796875 11.035156 43.460938 L 21.867188 36.917969 L 43.28125 53.339844 C 43.636719 53.609375 44.066406 53.75 44.496094 53.75 C 44.714844 53.75 44.933594 53.714844 45.144531 53.640625 L 54.644531 50.390625 C 55.457031 50.117188 56 49.355469 56 48.5 L 56 11.5 C 56 10.644531 55.457031 9.882812 54.648438 9.609375 Z M 12 33.53125 L 12 26.46875 L 17.847656 30 Z M 44 39.433594 L 30.074219 30 L 44 20.566406 Z M 44 39.433594 "/>
</g>
</svg>
